<?xml version="1.0" encoding="utf-8"?>
<!-- Generator: Adobe Illustrator 16.0.0, SVG Export Plug-In . SVG Version: 6.00 Build 0)  -->
<!DOCTYPE svg PUBLIC "-//W3C//DTD SVG 1.1//EN" "http://www.w3.org/Graphics/SVG/1.1/DTD/svg11.dtd">
<svg version="1.1" id="Capa_1" xmlns="http://www.w3.org/2000/svg" xmlns:xlink="http://www.w3.org/1999/xlink" x="0px" y="0px"
	 width="477.066px" height="482.199px" viewBox="361.467 180.445 477.066 482.199"
	 enable-background="new 361.467 180.445 477.066 482.199" xml:space="preserve">
<filter  width="1.112" height="1.11" id="c" filterUnits="objectBoundingBox" y="-.062" x="-.056">
	<feGaussianBlur  in="SourceGraphic" stdDeviation="2"></feGaussianBlur>
</filter>
<g>
	<g transform="matrix(1 0 0 -1 -542.696 1013.504)" filter="url(#c)">
		<g>
			<image overflow="visible" width="6" height="6" xlink:href="85039D68.png"  transform="matrix(1 0 0 -1 903.7717 831.7628)">
			</image>
		</g>
		<g>
			<g id="e_2_">
				<path opacity="0.2" d="M906.157,593.264c-0.015-41.963,10.92-82.925,31.705-119.031l-33.699-123.373l125.921,33.106
					c34.694-18.972,73.756-28.969,113.508-28.984h0.103c130.911,0,237.479,106.82,237.534,238.09
					c0.021,63.621-24.664,123.441-69.508,168.444c-44.852,45.001-104.489,69.797-168.026,69.825
					C1012.761,831.34,906.209,724.537,906.157,593.264z"/>
			</g>
		</g>
	</g>
	
		<linearGradient id="SVGID_1_" gradientUnits="userSpaceOnUse" x1="100.1064" y1="861.6133" x2="100.1064" y2="321.2388" gradientTransform="matrix(0.8515 0 0 0.8553 514.8943 -86.034)">
		<stop  offset="0" style="stop-color:#20B038"/>
		<stop  offset="1" style="stop-color:#60D66A"/>
	</linearGradient>
	<path fill="url(#SVGID_1_)" d="M371.985,417.761c-0.012,40.358,10.533,79.767,30.586,114.501l-32.505,118.685L491.521,619.1
		c33.462,18.238,71.137,27.862,109.479,27.876h0.103c126.265,0,229.048-102.75,229.101-229.036
		c0.025-61.197-23.785-118.74-67.045-162.031c-43.252-43.291-100.776-67.145-162.064-67.171
		C474.815,188.737,372.036,291.478,371.985,417.761"/>
	
		<linearGradient id="SVGID_2_" gradientUnits="userSpaceOnUse" x1="109.793" y1="861.9863" x2="109.7929" y2="302.2271" gradientTransform="matrix(0.8515 0 0 0.8553 506.645 -78.0617)">
		<stop  offset="0" style="stop-color:#F9F9F9"/>
		<stop  offset="1" style="stop-color:#FFFFFF"/>
	</linearGradient>
	<path fill="url(#SVGID_2_)" d="M363.805,417.682c-0.016,41.814,10.91,82.632,31.676,118.611l-33.669,122.937l125.812-32.988
		c34.663,18.903,73.69,28.866,113.408,28.881h0.102c130.797,0,237.271-106.443,237.326-237.248
		c0.022-63.397-24.642-123.006-69.447-167.851c-44.811-44.843-104.396-69.549-167.879-69.578
		C470.316,180.445,363.857,286.871,363.805,417.682L363.805,417.682z M438.727,530.099l-4.696-7.459
		c-19.747-31.397-30.171-67.683-30.154-104.942c0.042-108.726,88.526-197.18,197.333-197.18
		c52.691,0.021,102.211,20.56,139.458,57.831c37.243,37.27,57.737,86.816,57.722,139.509
		c-0.046,108.729-88.533,197.196-197.254,197.196h-0.076c-35.402-0.019-70.12-9.523-100.399-27.492l-7.206-4.271l-74.659,19.573
		L438.727,530.099z"/>
	<path fill="#FFFFFF" d="M541.818,318.504c-4.442-9.875-9.118-10.073-13.345-10.247c-3.456-0.147-7.413-0.138-11.363-0.138
		c-3.953,0-10.379,1.485-15.812,7.419c-5.437,5.934-20.758,20.278-20.758,49.454c0,29.179,21.252,57.369,24.214,61.329
		c2.965,3.955,41.024,65.738,101.297,89.508c50.093,19.753,60.286,15.824,71.159,14.836c10.872-0.988,35.084-14.342,40.025-28.188
		c4.942-13.846,4.942-25.713,3.46-28.193c-1.483-2.472-5.437-3.954-11.367-6.92c-5.931-2.965-35.084-17.313-40.521-19.289
		s-9.391-2.965-13.344,2.971c-3.954,5.932-15.311,19.284-18.771,23.239c-3.459,3.962-6.918,4.456-12.85,1.491
		c-5.931-2.975-25.029-9.23-47.687-29.431c-17.628-15.717-29.528-35.128-32.989-41.063c-3.459-5.932-0.37-9.144,2.604-12.1
		c2.662-2.657,5.931-6.921,8.896-10.385c2.959-3.462,3.948-5.934,5.925-9.888c1.977-3.96,0.988-7.423-0.494-10.388
		C558.616,359.555,547.092,330.229,541.818,318.504"/>
</g>
</svg>
